<svg id="Layer_1" data-name="Layer 1" xmlns="http://www.w3.org/2000/svg" viewBox="0 0 18.8 18.8"><defs><style>.cls-1{fill:#fff;}</style></defs><title>category</title><path class="cls-1" d="M292.1,309.4H292a.6.6,0,0,1-.3-.6.7.7,0,0,1,.6-.4h.5v-1.1H292a1.2,1.2,0,0,1-1.4-1.4V305a1.1,1.1,0,0,1,1.2-1.1h1v-.2a1.7,1.7,0,0,1,2-2h4.6v-1.1h-1.5a.5.5,0,0,1-.6-.6c0-.3.2-.5.6-.5h.5v-1.1h3.2v1.1h.6a.6.6,0,0,1,.6.5.6.6,0,0,1-.6.6h-1.6v1.1h4.9a1.6,1.6,0,0,1,1.5.9,2.4,2.4,0,0,1,.2.8v.5h.8a1.2,1.2,0,0,1,1.4.9v1.5h0a1.2,1.2,0,0,1-1.2.9h-1v1.1h.4c.4,0,.6.1.7.4a.8.8,0,0,1-.4.7h-2.5c-.3-.2-.5-.4-.4-.7a.7.7,0,0,1,.6-.4h.5v-1.1H305a1.1,1.1,0,0,1-1.1-1.1v-.8a1.2,1.2,0,0,1,1.4-1.4h.8v-.4c0-.5-.2-.7-.7-.7h-4.8v1.1h1a1.2,1.2,0,0,1,1.2,1.1,2.2,2.2,0,0,0,0,.8c0,.9-.5,1.5-1.4,1.4h-.8v1.1h.5a.5.5,0,0,1,.5.4.4.4,0,0,1-.2.6h-2.7c-.3-.2-.4-.4-.3-.7s.2-.4.6-.4h.4v-1.1h-1a1,1,0,0,1-1.1-1.1v-.8c-.1-.9.4-1.5,1.3-1.4h.8v-1.1h-4.9a.7.7,0,0,0-.6.4v.7H295a1.1,1.1,0,0,1,1.1,1.1v.8a1.2,1.2,0,0,1-1.4,1.4h-.8v1.1h.6a.7.7,0,0,1,.5.4.5.5,0,0,1-.3.6h-2.6Z" transform="translate(-290.6 -290.6)"/><path class="cls-1" d="M300,297.3h-3.2a1.6,1.6,0,0,1-1.6-1,1.7,1.7,0,0,1-.1-.7,18.2,18.2,0,0,1,0-3.3,1.6,1.6,0,0,1,1.6-1.7h6.6a1.8,1.8,0,0,1,1.7,1.7v3.3a1.8,1.8,0,0,1-1.8,1.7Z" transform="translate(-290.6 -290.6)"/></svg>