<svg id="Layer_1" data-name="Layer 1" xmlns="http://www.w3.org/2000/svg" viewBox="0 0 17.3 17.5"><defs><style>.cls-1{fill:#fff;}</style></defs><title>integration</title><path class="cls-1" d="M294.8,293.7a7.6,7.6,0,0,1-.4-1.1,1.1,1.1,0,0,1,1-1.4h.5a1,1,0,0,1,.8,1.3,7.6,7.6,0,0,1-.4,1.1h3.1c.3,0,.4.1.4.4v3l.8-.3h.8a.8.8,0,0,1,.8.8v.8a.8.8,0,0,1-.8.8l-1.1-.2-.5-.2v4h-.4a2.7,2.7,0,0,1-.9,0c-.2-.1-.4-.4-.6-.6l-.8-.8-.4.3c-.1.2-.2.2-.4.2s-.1-.2-.1-.4v-.5h-2.5v.6c.1.1,0,.2-.1.3h-.4c-.1-.1-.2-.3-.4-.4l-.8.9c-.1-.1-.1-.1-.1-.2v-8c0-.2.1-.3.4-.3Zm-1.4,3.3a.6.6,0,0,0,0,1.2c.4,0,.7-.3.6-.6A.6.6,0,0,0,293.4,297Zm2.5,1.2a.6.6,0,1,0,0-1.2.6.6,0,0,0,0,1.2Zm3-.6a.6.6,0,0,0-.6-.6.6.6,0,0,0-.6.6.6.6,0,0,0,1.2,0Z" transform="translate(-291.3 -291.2)"/><path class="cls-1" d="M308.2,303.2l-3.9-2.9v2.4h-3.9v-3.1h.9a1.4,1.4,0,0,0,1.5-1.4v-1a1.4,1.4,0,0,0-1.7-1.2h-.7V294c0-.2.1-.3.4-.3h2.4l-.3-1.1a.9.9,0,0,1,.7-1.3,1.1,1.1,0,0,1,.8,0,1,1,0,0,1,.8,1.3c-.1.3-.3.7-.4,1.1h3c.3,0,.4.1.4.4v2.1h-.7a1.5,1.5,0,0,0-1.7,1.5v.9a1.5,1.5,0,0,0,1.7,1.2l.7-.2Z" transform="translate(-291.3 -291.2)"/><path class="cls-1" d="M299.2,305.8v-1.9h-.6a.3.3,0,1,1,0-.6h6.3v-1.8l3.8,2.8-3.8,3.2v-1.7Z" transform="translate(-291.3 -291.2)"/><path class="cls-1" d="M297.9,303a.9.9,0,0,0,.7,1.5v1.2c-.4.1-.7.2-.8.6a.9.9,0,0,0,.1,1l-.8.8a.9.9,0,0,0-1-.1.8.8,0,0,0-.5.8h-1.2c-.3-.9-.9-1.2-1.6-.7l-.8-.8c.4-.8.2-1.4-.7-1.6v-1.1a1,1,0,0,0,.7-1.6l.8-.8a1,1,0,0,0,1.6-.7h1.1a1,1,0,0,0,.6.8.9.9,0,0,0,1-.1Zm-.8,2.1a2.2,2.2,0,0,0-4.3,0,2.2,2.2,0,1,0,4.3,0Z" transform="translate(-291.3 -291.2)"/><path class="cls-1" d="M295.9,305.1a1.1,1.1,0,0,1-1,1,1.2,1.2,0,0,1-.9-1,1,1,0,0,1,1-.9A.9.9,0,0,1,295.9,305.1Z" transform="translate(-291.3 -291.2)"/></svg>