<svg id="Layer_1" data-name="Layer 1" xmlns="http://www.w3.org/2000/svg" viewBox="0 0 17.9 17.9"><defs><style>.cls-1{fill:#fff;}</style></defs><title>integrations</title><path class="cls-1" d="M299.5,308.9h-1a9.1,9.1,0,0,1-5.5-3.2h-.1l-.3.9-1-.2.6-2.5h2.5v1h-1.1a8.1,8.1,0,0,0,8.6,2.9,7.9,7.9,0,0,0,4.7-3.7,7.4,7.4,0,0,0,.7-5.8.1.1,0,0,1,.1-.1l.9-.2a1.9,1.9,0,0,1,.2.8,8.7,8.7,0,0,1-3.2,8.4,8.1,8.1,0,0,1-4.9,1.9h-1.2Z" transform="translate(-291.1 -291.1)"/><path class="cls-1" d="M300.6,291.1h.9a9.4,9.4,0,0,1,5.5,3.2h.1a.6.6,0,0,0,.1-.4l.2-.5,1,.2-.6,2.5h-2.5v-1h1a7.7,7.7,0,0,0-8.6-2.8,7.8,7.8,0,0,0-5.3,9.5l-1.1.2c0-.3-.1-.5-.1-.8a2.5,2.5,0,0,1-.1-.8v-1.2c0-.3.1-.7.1-1.1a9.1,9.1,0,0,1,7.3-7.1h2.1Z" transform="translate(-291.1 -291.1)"/><path class="cls-1" d="M300,297.4a8.4,8.4,0,0,1-2.7-.4.9.9,0,0,1-.6-.3c-.5-.2-.5-.5-.1-.8l1.3-.4a10.9,10.9,0,0,1,4.4,0l.9.3h.2c.4.3.4.6,0,.8l-1.1.4A8.5,8.5,0,0,1,300,297.4Z" transform="translate(-291.1 -291.1)"/><path class="cls-1" d="M303.7,297.5v1.3l-.3.4-1.1.4a11.1,11.1,0,0,1-4.8-.1,1.9,1.9,0,0,1-.8-.3.5.5,0,0,1-.4-.6,4,4,0,0,0,0-1.1,2.7,2.7,0,0,0,1.4.7,10.1,10.1,0,0,0,3,.2,5.2,5.2,0,0,0,2.1-.4A1.3,1.3,0,0,0,303.7,297.5Z" transform="translate(-291.1 -291.1)"/><path class="cls-1" d="M303.7,299.9v1.3c0,.2-.2.3-.3.4a2.1,2.1,0,0,1-1.1.4,9.8,9.8,0,0,1-4.8,0,2,2,0,0,1-.8-.4.5.5,0,0,1-.4-.5,4.1,4.1,0,0,0,0-1.1h.1a1.3,1.3,0,0,0,.9.5,9.3,9.3,0,0,0,3.3.4l2.2-.4A1.3,1.3,0,0,0,303.7,299.9Z" transform="translate(-291.1 -291.1)"/><path class="cls-1" d="M303.7,302.4v.8a1,1,0,0,1-.4.7,2.5,2.5,0,0,1-1.4.6,8.1,8.1,0,0,1-4.1-.1,1.9,1.9,0,0,1-1-.5,1.1,1.1,0,0,1-.5-.9c.1-.2,0-.4,0-.6a2.8,2.8,0,0,0,1.6.7,10.9,10.9,0,0,0,4.4,0l1-.4C303.5,302.7,303.6,302.5,303.7,302.4Z" transform="translate(-291.1 -291.1)"/></svg>