<svg id="Layer_1" data-name="Layer 1" xmlns="http://www.w3.org/2000/svg" viewBox="0 0 17.9 17.9"><defs><style>.cls-1{fill:#fff;}</style></defs><title>resource</title><path class="cls-1" d="M295.4,298.7v3.1h.6v-2.9h.6v2.8h.6v-2.6h.4c.1,0,.2.2.2.3v3.3a1.1,1.1,0,0,1-.3.8,2.7,2.7,0,0,1-.7.8c0,.1-.1.1-.2.1h-3.1c-.1,0-.2,0-.2-.1a2.7,2.7,0,0,1-.7-.8,1.7,1.7,0,0,1-.3-1v-1.2a2.7,2.7,0,0,0-.3-1.2l-.3-.6c-.1-.2,0-.3.2-.3a1,1,0,0,1,1,1v1.4h.6V295q0-.2.3-.3a.3.3,0,0,1,.3.3v6.8h.6v-3.3Z" transform="translate(-291 -291)"/><path class="cls-1" d="M294.7,295.4a.9.9,0,0,0-.3-1,.9.9,0,0,0-.6-.3.8.8,0,0,0-.7.4,1.3,1.3,0,0,0-.2.9h-1.6c-.2-.1-.3-.2-.3-.4v-2.4a.3.3,0,0,1,.3-.3H298c.4,0,.5.1.5.4V295a.4.4,0,0,1-.4.4Z" transform="translate(-291 -291)"/><path class="cls-1" d="M297.2,309h-4.3v-2.4c.1-.4.3-.8.4-1.1h3.5a3.3,3.3,0,0,1,.4,1.4Z" transform="translate(-291 -291)"/><path class="cls-1" d="M308.4,295.5a2.5,2.5,0,0,0-1.2-1.1q1.1-1.5,0-2.4a1.5,1.5,0,0,0-2.1.1,1.6,1.6,0,0,0,0,2.2,3.2,3.2,0,0,0-1.1,1.2,2.8,2.8,0,0,1,.2-3.6,2.7,2.7,0,0,1,3.9-.1A2.8,2.8,0,0,1,308.4,295.5Z" transform="translate(-291 -291)"/><path class="cls-1" d="M305.3,301.7a3.4,3.4,0,0,0-1.2-1.2,1.5,1.5,0,0,0,.1-2.2,1.5,1.5,0,0,0-2.1-.1c-.7.6-.7,1.4-.1,2.3a3.2,3.2,0,0,0-1.1,1.2,2.8,2.8,0,1,1,4.4,0Z" transform="translate(-291 -291)"/><path class="cls-1" d="M308.4,307.9a2.8,2.8,0,0,0-1.2-1.2,1.5,1.5,0,0,0,0-2.3,1.7,1.7,0,0,0-2.1,0,1.7,1.7,0,0,0,0,2.3,2.6,2.6,0,0,0-1.1,1.2,2.6,2.6,0,0,1,.2-3.6,2.7,2.7,0,0,1,3.8-.2A2.8,2.8,0,0,1,308.4,307.9Z" transform="translate(-291 -291)"/><path class="cls-1" d="M307.9,296a2.7,2.7,0,0,1-3.3.1.4.4,0,0,1-.1-.3,2.1,2.1,0,0,1,1.8-1.1A2,2,0,0,1,307.9,296Z" transform="translate(-291 -291)"/><path class="cls-1" d="M304.8,302.2a2.7,2.7,0,0,1-3.4,0,1.8,1.8,0,0,1,1.6-1.3A1.7,1.7,0,0,1,304.8,302.2Z" transform="translate(-291 -291)"/><path class="cls-1" d="M307.9,308.4a2.7,2.7,0,0,1-3.4,0,1.7,1.7,0,0,1,1.6-1.3A1.8,1.8,0,0,1,307.9,308.4Z" transform="translate(-291 -291)"/><path class="cls-1" d="M302.8,305.9v.6h-5v-.6Z" transform="translate(-291 -291)"/><path class="cls-1" d="M307.1,293.2a.9.9,0,1,1-.9-.9A.9.9,0,0,1,307.1,293.2Z" transform="translate(-291 -291)"/><path class="cls-1" d="M303.1,300.3a.9.9,0,1,1,.9-.9A.9.9,0,0,1,303.1,300.3Z" transform="translate(-291 -291)"/><path class="cls-1" d="M306.2,304.6a1,1,0,0,1,.9,1,.9.9,0,0,1-1.8,0A1,1,0,0,1,306.2,304.6Z" transform="translate(-291 -291)"/><path class="cls-1" d="M302.8,294.1h-3.7v-.6h3.7Z" transform="translate(-291 -291)"/><path class="cls-1" d="M298.5,300.3v-.6h1.2v.6Z" transform="translate(-291 -291)"/></svg>