<svg id="Layer_1" data-name="Layer 1" xmlns="http://www.w3.org/2000/svg" viewBox="0 0 17.9 17.9"><defs><style>.cls-1{fill:#fff;}</style></defs><title>topic</title><path class="cls-1" d="M291.1,291.4c.1-.3.3-.3.7-.3h3.9a.5.5,0,0,1,.6.6v4a.5.5,0,0,1-.6.6h-3.9c-.4,0-.6-.1-.7-.4Z" transform="translate(-291.1 -291.1)"/><path class="cls-1" d="M291.1,297.8c.1-.3.3-.4.7-.4h3.9a.5.5,0,0,1,.6.6v4a.5.5,0,0,1-.6.6h-3.9c-.4,0-.6-.1-.7-.4Z" transform="translate(-291.1 -291.1)"/><path class="cls-1" d="M291.1,304.1c.1-.3.3-.4.7-.4h3.9a.5.5,0,0,1,.6.6v3.9c0,.4-.1.6-.4.7h-4.5l-.3-.3Z" transform="translate(-291.1 -291.1)"/><path class="cls-1" d="M308.9,293.8c-.1.3-.3.4-.7.4H297.8a.7.7,0,0,1-.4-.6.5.5,0,0,1,.5-.4h10.3c.4,0,.6,0,.7.3Z" transform="translate(-291.1 -291.1)"/><path class="cls-1" d="M308.9,295.9c-.1.3-.3.4-.7.4H297.8a.7.7,0,0,1-.4-.6.5.5,0,0,1,.5-.4c.1-.1.1,0,.2,0h10.1c.4,0,.6.1.7.4Z" transform="translate(-291.1 -291.1)"/><path class="cls-1" d="M308.9,300.1c-.1.3-.3.4-.7.4H297.8c-.2,0-.4-.3-.4-.5a.5.5,0,0,1,.5-.5h10.3c.4,0,.6.1.7.4Z" transform="translate(-291.1 -291.1)"/><path class="cls-1" d="M308.9,302.2c-.1.3-.3.4-.7.4H297.8c-.2,0-.4-.3-.4-.5a.5.5,0,0,1,.5-.5h10.3c.4,0,.6.1.7.4Z" transform="translate(-291.1 -291.1)"/><path class="cls-1" d="M308.9,306.5c-.1.3-.3.4-.7.4H297.8c-.2,0-.4-.3-.4-.5a.5.5,0,0,1,.5-.5h10.3c.4,0,.6.1.7.4Z" transform="translate(-291.1 -291.1)"/><path class="cls-1" d="M297.8,308.9h-.1a.7.7,0,0,1-.3-.6.7.7,0,0,1,.5-.4h10.3c.4,0,.6.1.7.4v.3l-.3.3Z" transform="translate(-291.1 -291.1)"/><path class="cls-1" d="M300.1,291.1h2a.5.5,0,1,1,0,1H298a.5.5,0,1,1,0-1Z" transform="translate(-291.1 -291.1)"/><path class="cls-1" d="M300.1,297.4h2a.5.5,0,1,1,0,1H298a.5.5,0,1,1,0-1Z" transform="translate(-291.1 -291.1)"/><path class="cls-1" d="M300,304.8h-2a.6.6,0,0,1-.6-.6.6.6,0,0,1,.6-.5h4.1a.6.6,0,0,1,.6.5.6.6,0,0,1-.6.6Z" transform="translate(-291.1 -291.1)"/></svg>