<svg id="Layer_1" data-name="Layer 1" xmlns="http://www.w3.org/2000/svg" viewBox="0 0 15.4 20"><defs><style>.cls-1{fill:#fff;}</style></defs><title>type</title><path class="cls-1" d="M292.3,310V290H305l2.6,2.6a1,1,0,0,1,.1.3v17Zm1.3-18.7v17.4h12.8V293.4h-2.3v-2.1Z" transform="translate(-292.3 -290)"/><path class="cls-1" d="M301.7,303.3h-2.6c-.5,0-.7-.3-.6-.7a.8.8,0,0,1,.4-.4h5.5c.3,0,.5.1.6.5a.6.6,0,0,1-.5.6h-2.8Z" transform="translate(-292.3 -290)"/><path class="cls-1" d="M301.7,296.3h2.7a.6.6,0,0,1,.6.7.7.7,0,0,1-.5.4H299a.6.6,0,0,1-.5-.6c0-.3.2-.5.6-.5Z" transform="translate(-292.3 -290)"/><path class="cls-1" d="M301.7,299.3h2.7a.6.6,0,0,1,.6.8.5.5,0,0,1-.5.3h-5.4a.6.6,0,0,1-.6-.7c.1-.2.2-.4.5-.4h2.7Z" transform="translate(-292.3 -290)"/><path class="cls-1" d="M301.8,306.4h-2.7c-.5,0-.7-.3-.6-.7s.2-.4.4-.4h5.5a.6.6,0,0,1,.6.7.7.7,0,0,1-.6.4h-2.6Z" transform="translate(-292.3 -290)"/><path class="cls-1" d="M295.9,296.7a3.6,3.6,0,0,1,.7-1l.3-.3a.5.5,0,0,1,.4.2.5.5,0,0,1,0,.5,2.2,2.2,0,0,0-.5.8,1.6,1.6,0,0,0-.4.7.4.4,0,0,1-.7.1l-.5-.5c-.2-.2-.2-.5,0-.6a.4.4,0,0,1,.6,0Z" transform="translate(-292.3 -290)"/><path class="cls-1" d="M295.6,302.8l.7-1c.1-.2.2-.2.4-.2s.3,0,.4.2,0,.3-.1.4a3.5,3.5,0,0,1-.5.8l-.3.7a.5.5,0,0,1-.8.1l-.5-.5c-.2-.2-.2-.5,0-.6a.5.5,0,0,1,.7,0Z" transform="translate(-292.3 -290)"/><path class="cls-1" d="M295.6,306a8.6,8.6,0,0,1,.7-1l.3-.3c.2,0,.4,0,.5.2s0,.3-.1.5l-.4.6a3,3,0,0,0-.4.8c-.2.4-.5.5-.9.1l-.4-.5c-.2-.2-.1-.4,0-.6a.5.5,0,0,1,.6.1C295.6,305.9,295.6,305.9,295.6,306Z" transform="translate(-292.3 -290)"/><path class="cls-1" d="M295.6,299.7a6.1,6.1,0,0,0,.7-1,.4.4,0,0,1,.5-.2c.3,0,.4.3.2.6l-.3.5a3.1,3.1,0,0,0-.5,1,.5.5,0,0,1-.8.1c-.2-.1-.3-.3-.5-.5s-.2-.5,0-.6.4-.2.7,0Z" transform="translate(-292.3 -290)"/></svg>