<svg id="Layer_1" data-name="Layer 1" xmlns="http://www.w3.org/2000/svg" xmlns:xlink="http://www.w3.org/1999/xlink" viewBox="0 0 3389 1018.47"><defs><style>.cls-1{fill:url(#linear-gradient);}.cls-2{fill:url(#linear-gradient-2);}.cls-3{fill:url(#linear-gradient-3);}.cls-4{fill:url(#linear-gradient-4);}.cls-5{fill:url(#linear-gradient-5);}.cls-6{fill:url(#linear-gradient-6);}.cls-7{fill:url(#linear-gradient-7);}.cls-8{fill:url(#linear-gradient-8);}.cls-9{fill:#414042;}.cls-10{fill:url(#linear-gradient-9);}.cls-11{fill:url(#linear-gradient-10);}</style><linearGradient id="linear-gradient" x1="1144.69" y1="302.73" x2="1878.26" y2="146.11" gradientUnits="userSpaceOnUse"><stop offset="0" stop-color="#64daa1"/><stop offset="1" stop-color="#00b4e4"/></linearGradient><linearGradient id="linear-gradient-2" x1="1146.1" y1="309.36" x2="1879.67" y2="152.74" xlink:href="#linear-gradient"/><linearGradient id="linear-gradient-3" x1="1151.11" y1="332.79" x2="1884.67" y2="176.17" xlink:href="#linear-gradient"/><linearGradient id="linear-gradient-4" x1="1156" y1="355.73" x2="1889.57" y2="199.11" xlink:href="#linear-gradient"/><linearGradient id="linear-gradient-5" x1="1163.39" y1="390.32" x2="1896.96" y2="233.7" xlink:href="#linear-gradient"/><linearGradient id="linear-gradient-6" x1="1160.82" y1="378.31" x2="1894.39" y2="221.68" xlink:href="#linear-gradient"/><linearGradient id="linear-gradient-7" x1="1164.25" y1="394.34" x2="1897.81" y2="237.71" xlink:href="#linear-gradient"/><linearGradient id="linear-gradient-8" x1="1146.64" y1="279" x2="1853.28" y2="128.12" xlink:href="#linear-gradient"/><linearGradient id="linear-gradient-9" x1="176.43" y1="512.94" x2="839.64" y2="512.94" gradientUnits="userSpaceOnUse"><stop offset="0" stop-color="#64daa1"/><stop offset="1" stop-color="#00b4e4" stop-opacity="0.3"/></linearGradient><linearGradient id="linear-gradient-10" x1="568.71" y1="512.94" x2="965.99" y2="512.94" xlink:href="#linear-gradient-9"/></defs><path class="cls-1" d="M1354.34,259.27v56.88a5.86,5.86,0,0,1-5.86,5.86h-15.76a5.86,5.86,0,0,1-5.86-5.86V263.78c0-15.59-8.41-25.84-22.76-25.84-14.15,0-22.76,10.25-22.76,25.84v52.37a5.86,5.86,0,0,1-5.86,5.86h-15.76a5.86,5.86,0,0,1-5.86-5.86V221.24a5.86,5.86,0,0,1,5.86-5.85h15.76a5.85,5.85,0,0,1,5.86,5.85v8.7c6-9.43,16.61-16.6,32.6-16.6C1335.88,213.34,1354.34,226.87,1354.34,259.27Z"/><path class="cls-2" d="M1426.51,304.43v10.75a5.86,5.86,0,0,1-3.32,5.29c-4.28,2-10.11,2.77-15.34,2.77-18,0-31.17-8.82-31.17-30.76V237.33h-9.31a5.86,5.86,0,0,1-5.86-5.86V221.24a5.85,5.85,0,0,1,5.86-5.85h9.31V194a5.87,5.87,0,0,1,5.86-5.86h16a5.87,5.87,0,0,1,5.86,5.86v21.42h16.08a5.85,5.85,0,0,1,5.85,5.85v10.23a5.86,5.86,0,0,1-5.85,5.86h-16.08V288c0,5.54,3.07,10.87,12.09,10.87a30.05,30.05,0,0,0,3.53-.23A5.85,5.85,0,0,1,1426.51,304.43Z"/><path class="cls-3" d="M1505.65,219.22v14.71a5.84,5.84,0,0,1-5.94,5.87h-1c-20.71,0-33.63,14.35-33.63,35.67v40.69a5.85,5.85,0,0,1-5.85,5.86h-15.76a5.86,5.86,0,0,1-5.86-5.86V221.24a5.85,5.85,0,0,1,5.86-5.85h15.76a5.85,5.85,0,0,1,5.85,5.85v21.83c3.7-16.41,14.15-29.73,33.43-29.73q.78,0,1.56,0A5.84,5.84,0,0,1,1505.65,219.22Z"/><path class="cls-4" d="M1507.5,268.7c0-36.09,28.29-55.36,56.18-55.36,27.68,0,56.18,19.27,56.18,55.36s-28.5,55.36-56.18,55.36C1535.79,324.06,1507.5,304.79,1507.5,268.7Zm85.09,0c0-19.07-13.53-30.55-28.91-30.55s-29.12,11.48-29.12,30.55,13.74,30.55,29.12,30.55S1592.59,287.77,1592.59,268.7Z"/><path class="cls-5" d="M1741.45,268.7c0,36.9-26.45,55.36-51.26,55.36-19.07,0-31.37-10.46-34-16.4h-.61v47.45a5.87,5.87,0,0,1-5.86,5.86h-15.76a5.86,5.86,0,0,1-5.86-5.86V221.24a5.85,5.85,0,0,1,5.86-5.85h15.76a5.86,5.86,0,0,1,5.86,5.85v8.5h.61c2.67-6,15-16.4,34-16.4C1715,213.34,1741.45,231.79,1741.45,268.7Zm-27.27,0c0-19.89-14.36-30.76-29.53-30.76-15.58,0-29.73,10.66-29.73,30.76s14.15,30.75,29.73,30.75C1699.82,299.45,1714.18,288.59,1714.18,268.7Z"/><path class="cls-6" d="M1757.56,176.43h15.76a5.85,5.85,0,0,1,5.85,5.86v12.47a5.85,5.85,0,0,1-5.85,5.86h-15.76a5.86,5.86,0,0,1-5.86-5.86V182.29A5.86,5.86,0,0,1,1757.56,176.43Zm0,39h15.76a5.85,5.85,0,0,1,5.85,5.85v94.91a5.85,5.85,0,0,1-5.85,5.86h-15.76a5.86,5.86,0,0,1-5.86-5.86V221.24A5.85,5.85,0,0,1,1757.56,215.39Z"/><path class="cls-7" d="M1835.35,281,1822,295.76v20.39a5.85,5.85,0,0,1-5.85,5.86h-15.76a5.86,5.86,0,0,1-5.86-5.86V182.29a5.86,5.86,0,0,1,5.86-5.86h15.76a5.85,5.85,0,0,1,5.85,5.86V260.7l38.24-43.33a5.85,5.85,0,0,1,4.39-2h17a5.86,5.86,0,0,1,4.35,9.78l-33.6,37.17L1892,312.52a5.86,5.86,0,0,1-4.6,9.49h-15.87a5.84,5.84,0,0,1-4.54-2.16Z"/><path class="cls-8" d="M1241.44,292.24a38.2,38.2,0,0,1-24.48,8.83c-11.34,0-17.88-2-24.33-8.2a4.37,4.37,0,0,1,0-6.28l46.24-44.09a6.8,6.8,0,0,0,.41-9.41c-9.52-10.81-22.86-19.26-41.37-19.26a54.25,54.25,0,0,0-53.14,65l8.15,38.29a4.33,4.33,0,0,0,7.17,2.27l7.15-6.63a54.2,54.2,0,0,0,77.64-17.61A2.29,2.29,0,0,0,1241.44,292.24ZM1178,272.54a20.78,20.78,0,0,1,21.53-33.35,2.8,2.8,0,0,1,1.6,4.21l-18.63,28.86A2.8,2.8,0,0,1,1178,272.54Z"/><path class="cls-9" d="M1143.73,418.22H1295c115.38,0,201.91,85.95,201.91,209s-86.53,209-201.91,209H1143.73Zm148.34,342c79.47,0,120.67-54.15,120.67-133s-41.2-133-120.67-133h-67.69V760.22Z"/><path class="cls-9" d="M1529.88,683.11c0-103,76.52-158.93,154.81-158.93,77.7,0,166,54.74,148.93,189.54h-229c11.18,41.79,47.68,63.57,93.59,63.57,30,0,56.51-8.24,78.88-27.66L1813,787.89C1787.7,819.68,1743.56,842,1689.4,842,1605.23,842,1529.88,785,1529.88,683.11ZM1763.57,656c-4.71-43.56-41.2-65.33-78.29-65.33-36.49,0-71.81,21.19-81.82,65.33Z"/><path class="cls-9" d="M1866,683.11c0-103.6,80.65-158.93,161.29-158.93,54.16,0,102.42,25.31,131.86,75.34l-57.69,37.09c-15.89-24.14-41.79-41.21-73.58-41.21-44.15,0-84.18,33-84.18,87.71s40,87.71,84.18,87.71c31.79,0,57.69-17.07,73.58-41.21l57.69,37.09c-29.44,49.44-77.7,75.34-131.86,75.34C1946.64,842,1866,786.71,1866,683.11Z"/><path class="cls-9" d="M2182.68,683.11c0-103.6,81.23-158.93,161.29-158.93,79.46,0,161.28,55.33,161.28,158.93S2423.43,842,2344,842C2263.91,842,2182.68,786.71,2182.68,683.11ZM2344,770.82c44.14,0,83-33,83-87.71s-38.85-87.71-83-87.71-83.59,33-83.59,87.71S2299.82,770.82,2344,770.82Z"/><path class="cls-9" d="M2782.5,836.16V795h-1.77C2773.08,812,2737.76,842,2683,842c-71.23,0-147.16-53-147.16-158.93S2611.79,524.18,2683,524.18c54.74,0,90.06,30,97.71,47.09h1.77v-153h78.87V836.16Zm-83.59-64.75c44.15,0,85.35-30.61,85.35-88.3s-41.2-88.29-85.35-88.29-85.35,31.19-85.35,88.29S2654.76,771.41,2698.91,771.41Z"/><path class="cls-9" d="M2906.69,683.11c0-103,76.52-158.93,154.81-158.93,77.7,0,166,54.74,148.93,189.54h-229c11.18,41.79,47.68,63.57,93.59,63.57,30,0,56.51-8.24,78.88-27.66l35.91,38.26c-25.31,31.79-69.46,54.15-123.62,54.15C2982,842,2906.69,785,2906.69,683.11ZM3140.38,656c-4.71-43.56-41.2-65.33-78.29-65.33-36.49,0-71.81,21.19-81.82,65.33Z"/><path class="cls-10" d="M517.71,844.55H176.43V181.34H517.71A321.93,321.93,0,0,1,839.64,503.27v19.34A321.94,321.94,0,0,1,517.71,844.55Zm-277.28-64H517.71A257.94,257.94,0,0,0,775.64,522.61V503.27A257.93,257.93,0,0,0,517.71,245.34H240.43Z"/><path class="cls-11" d="M966,711.58H762c-106.57,0-193.26-86.7-193.26-193.26V507.56C568.71,401,655.4,314.3,762,314.3H966ZM762,378.3c-71.27,0-129.26,58-129.26,129.26v10.76c0,71.27,58,129.26,129.26,129.26H902V378.3Z"/></svg>